<svg width="1280" height="720" viewBox="0 0 1280 720" fill="none" xmlns="http://www.w3.org/2000/svg">
<rect width="1280" height="720" rx="20" fill="#0E0F11"/>
<path d="M489.526 329.902V390H478.735L452.338 351.816H451.84V390H439.389V329.902H450.346L476.577 368.086H477.158V329.902H489.526ZM554.687 359.951C554.687 379.541 542.485 390.83 526.63 390.83C510.61 390.83 498.491 379.458 498.491 359.951C498.491 340.361 510.61 329.072 526.63 329.072C542.485 329.072 554.687 340.361 554.687 359.951ZM541.987 359.951C541.987 347.085 535.927 340.112 526.63 340.112C517.333 340.112 511.191 347.085 511.191 359.951C511.191 372.817 517.333 379.79 526.63 379.79C535.927 379.79 541.987 372.817 541.987 359.951ZM595.693 329.902V390H583.242V329.902H595.693ZM605.82 329.902H621.259L637.944 370.659H638.608L655.292 329.902H670.732V390H658.613V350.654H658.115L642.426 389.751H634.125L618.437 350.488H617.939V390H605.82V329.902ZM690.903 390H677.456L698.29 329.902H714.311L735.063 390H721.699L717.216 376.138H695.468L690.903 390ZM698.623 366.426H714.062L706.508 343.433H706.093L698.623 366.426ZM778.974 349.243C777.314 343.599 772.749 340.112 766.191 340.112C756.894 340.112 750.585 347.251 750.585 359.868C750.585 372.568 756.728 379.79 766.274 379.79C774.865 379.79 779.97 374.934 780.136 367.339H767.104V357.959H792.172V365.43C792.172 381.201 781.381 390.83 766.191 390.83C749.34 390.83 737.885 379.043 737.885 360.034C737.885 340.527 750.087 329.072 765.942 329.072C779.472 329.072 789.931 337.373 791.591 349.243H778.974ZM801.303 390V329.902H841.645V340.195H813.754V354.805H839.57V365.098H813.754V379.707H841.728V390H801.303Z" fill="#02B28C"/>
</svg>
