<svg width="98" height="42" viewBox="0 0 98 42" fill="none" xmlns="http://www.w3.org/2000/svg">
<path d="M3.55 35.15H0.4V28.45H4.1V34.65H7.15V37.7H15.9V34.65H19V25.9H15.9V22.8H6.65V19.15H15.9V16.1H19V7.35H15.9V4.25H7.15V7.35H4.1V13.55H0.4V6.8H3.55V3.7H6.65V0.649997H16.45V3.7H19.5V6.8H22.6V16.6H19.5V19.7H16.45V22.25H19.5V25.35H22.6V35.15H19.5V38.25H16.45V41.4H6.65V38.25H3.55V35.15ZM28.55 35.15H25.4V31.55H29.1V34.65H32.15V37.7H40.9V34.65H44V22.8H40.9V19.7H32.15V22.8H29.1V25.9H25.4V0.649997H44.5V4.25H29.1V19.15H31.65V16.1H41.45V19.15H44.5V22.25H47.6V35.15H44.5V38.25H41.45V41.4H31.65V38.25H28.55V35.15ZM50.4 0.649997H54.1V6.8H57.15V16.1H60.25V28.45H62.8V16.1H65.9V6.8H69V0.649997H72.6V41.4H69V16.6H66.45V29H63.35V38.25H59.7V29H56.65V16.6H54.1V41.4H50.4V0.649997ZM75.4 0.649997H79.1V6.8H82.15V16.1H85.25V28.45H87.8V16.1H90.9V6.8H94V0.649997H97.6V41.4H94V16.6H91.45V29H88.35V38.25H84.7V29H81.65V16.6H79.1V41.4H75.4V0.649997Z" fill="#D9D9D9"/>
</svg>
