<svg width="375" height="86" viewBox="0 0 375 86" fill="none" xmlns="http://www.w3.org/2000/svg">
<path d="M31.25 39.125H39.0625V46.9375H31.25V39.125ZM39.0625 39.125H46.875V46.9375H39.0625V39.125ZM39.0625 31.3125H46.875V39.125H39.0625V31.3125ZM31.25 31.3125H39.0625V39.125H31.25V31.3125ZM23.4375 23.5H31.25V31.3125H23.4375V23.5ZM23.4375 15.6875H31.25V23.5H23.4375V15.6875ZM23.4375 7.875H31.25V15.6875H23.4375V7.875ZM23.4375 0.0625H31.25V7.875H23.4375V0.0625ZM15.625 0.0625H23.4375V7.875H15.625V0.0625ZM15.625 7.875H23.4375V15.6875H15.625V7.875ZM7.8125 15.6875H15.625V23.5H7.8125V15.6875ZM15.625 15.6875H23.4375V23.5H15.625V15.6875ZM15.625 23.5H23.4375V31.3125H15.625V23.5ZM7.8125 23.5H15.625V31.3125H7.8125V23.5ZM0 15.6875H7.8125V23.5H0V15.6875ZM0 23.5H7.8125V31.3125H0V23.5ZM23.4375 46.9375H31.25V54.75H23.4375V46.9375ZM15.625 46.9375H23.4375V54.75H15.625V46.9375ZM15.625 54.75H23.4375V62.5625H15.625V54.75ZM15.625 62.5625H23.4375V70.375H15.625V62.5625ZM15.625 70.375H23.4375V78.1875H15.625V70.375ZM23.4375 70.375H31.25V78.1875H23.4375V70.375ZM23.4375 62.5625H31.25V70.375H23.4375V62.5625ZM23.4375 54.75H31.25V62.5625H23.4375V54.75ZM7.8125 46.9375H15.625V54.75H7.8125V46.9375ZM0 46.9375H7.8125V54.75H0V46.9375ZM0 54.75H7.8125V62.5625H0V54.75ZM7.8125 54.75H15.625V62.5625H7.8125V54.75ZM46.875 46.9375H54.6875V54.75H46.875V46.9375ZM46.875 54.75H54.6875V62.5625H46.875V54.75ZM46.875 62.5625H54.6875V70.375H46.875V62.5625ZM46.875 70.375H54.6875V78.1875H46.875V70.375ZM54.6875 70.375H62.5V78.1875H54.6875V70.375ZM54.6875 62.5625H62.5V70.375H54.6875V62.5625ZM54.6875 54.75H62.5V62.5625H54.6875V54.75ZM54.6875 46.9375H62.5V54.75H54.6875V46.9375ZM70.3125 46.9375H78.125V54.75H70.3125V46.9375ZM70.3125 54.75H78.125V62.5625H70.3125V54.75ZM62.5 54.75H70.3125V62.5625H62.5V54.75ZM62.5 46.9375H70.3125V54.75H62.5V46.9375ZM46.875 15.6875H54.6875V23.5H46.875V15.6875ZM46.875 7.875H54.6875V15.6875H46.875V7.875ZM46.875 0.0625H54.6875V7.875H46.875V0.0625ZM54.6875 0.0625H62.5V7.875H54.6875V0.0625ZM54.6875 7.875H62.5V15.6875H54.6875V7.875ZM54.6875 15.6875H62.5V23.5H54.6875V15.6875ZM54.6875 23.5H62.5V31.3125H54.6875V23.5ZM46.875 23.5H54.6875V31.3125H46.875V23.5ZM62.5 15.6875H70.3125V23.5H62.5V15.6875ZM70.3125 15.6875H78.125V23.5H70.3125V15.6875ZM70.3125 23.5H78.125V31.3125H70.3125V23.5ZM62.5 23.5H70.3125V31.3125H62.5V23.5ZM117.188 31.3125H125V39.125H117.188V31.3125ZM117.188 39.125H125V46.9375H117.188V39.125ZM117.188 46.9375H125V54.75H117.188V46.9375ZM109.375 46.9375H117.188V54.75H109.375V46.9375ZM109.375 39.125H117.188V46.9375H109.375V39.125ZM109.375 31.3125H117.188V39.125H109.375V31.3125ZM109.375 23.5H117.188V31.3125H109.375V23.5ZM117.188 23.5H125V31.3125H117.188V23.5ZM117.188 15.6875H125V23.5H117.188V15.6875ZM109.375 15.6875H117.188V23.5H109.375V15.6875ZM125 15.6875H132.812V23.5H125V15.6875ZM125 23.5H132.812V31.3125H125V23.5ZM132.812 15.6875H140.625V23.5H132.812V15.6875ZM140.625 15.6875H148.438V23.5H140.625V15.6875ZM140.625 23.5H148.438V31.3125H140.625V23.5ZM132.812 23.5H140.625V31.3125H132.812V23.5ZM140.625 31.3125H148.438V39.125H140.625V31.3125ZM140.625 39.125H148.438V46.9375H140.625V39.125ZM140.625 46.9375H148.438V54.75H140.625V46.9375ZM132.812 46.9375H140.625V54.75H132.812V46.9375ZM125 46.9375H132.812V54.75H125V46.9375ZM125 54.75H132.812V62.5625H125V54.75ZM101.562 31.3125H109.375V39.125H101.562V31.3125ZM125 7.875H132.812V15.6875H125V7.875ZM148.438 31.3125H156.25V39.125H148.438V31.3125ZM148.438 15.6875H156.25V23.5H148.438V15.6875ZM148.438 23.5H156.25V31.3125H148.438V23.5ZM148.438 39.125H156.25V46.9375H148.438V39.125ZM148.438 46.9375H156.25V54.75H148.438V46.9375ZM148.438 54.75H156.25V62.5625H148.438V54.75ZM140.625 54.75H148.438V62.5625H140.625V54.75ZM132.812 54.75H140.625V62.5625H132.812V54.75ZM117.188 54.75H125V62.5625H117.188V54.75ZM109.375 54.75H117.188V62.5625H109.375V54.75ZM101.562 39.125H109.375V46.9375H101.562V39.125ZM93.75 39.125H101.562V46.9375H93.75V39.125ZM93.75 31.3125H101.562V39.125H93.75V31.3125ZM132.812 7.875H140.625V15.6875H132.812V7.875ZM132.812 0.0625H140.625V7.875H132.812V0.0625ZM125 0.0625H132.812V7.875H125V0.0625ZM156.25 31.3125H164.062V39.125H156.25V31.3125ZM164.062 31.3125H171.875V39.125H164.062V31.3125ZM164.062 39.125H171.875V46.9375H164.062V39.125ZM156.25 39.125H164.062V46.9375H156.25V39.125ZM125 62.5625H132.812V70.375H125V62.5625ZM132.812 62.5625H140.625V70.375H132.812V62.5625ZM132.812 70.375H140.625V78.1875H132.812V70.375ZM125 70.375H132.812V78.1875H125V70.375ZM218.75 31.3125H226.562V39.125H218.75V31.3125ZM218.75 39.125H226.562V46.9375H218.75V39.125ZM226.562 39.125H234.375V46.9375H226.562V39.125ZM226.562 31.3125H234.375V39.125H226.562V31.3125ZM210.938 23.5H218.75V31.3125H210.938V23.5ZM203.125 15.6875H210.938V23.5H203.125V15.6875ZM203.125 7.875H210.938V15.6875H203.125V7.875ZM195.312 15.6875H203.125V23.5H195.312V15.6875ZM234.375 31.3125H242.188V39.125H234.375V31.3125ZM234.375 39.125H242.188V46.9375H234.375V39.125ZM234.375 46.9375H242.188V54.75H234.375V46.9375ZM226.562 46.9375H234.375V54.75H226.562V46.9375ZM218.75 46.9375H226.562V54.75H218.75V46.9375ZM242.188 23.5H250V31.3125H242.188V23.5ZM250 15.6875H257.812V23.5H250V15.6875ZM250 7.875H257.812V15.6875H250V7.875ZM257.812 15.6875H265.625V23.5H257.812V15.6875ZM242.188 54.75H250V62.5625H242.188V54.75ZM250 62.5625H257.812V70.375H250V62.5625ZM257.812 62.5625H265.625V70.375H257.812V62.5625ZM250 70.375H257.812V78.1875H250V70.375ZM210.938 54.75H218.75V62.5625H210.938V54.75ZM203.125 62.5625H210.938V70.375H203.125V62.5625ZM195.312 62.5625H203.125V70.375H195.312V62.5625ZM203.125 70.375H210.938V78.1875H203.125V70.375ZM257.812 7.875H265.625V15.6875H257.812V7.875ZM265.625 7.875H273.438V15.6875H265.625V7.875ZM257.812 0.0625H265.625V7.875H257.812V0.0625ZM195.312 7.875H203.125V15.6875H195.312V7.875ZM195.312 0.0625H203.125V7.875H195.312V0.0625ZM187.5 7.875H195.312V15.6875H187.5V7.875ZM257.812 70.375H265.625V78.1875H257.812V70.375ZM265.625 70.375H273.438V78.1875H265.625V70.375ZM257.812 78.1875H265.625V86H257.812V78.1875ZM195.312 70.375H203.125V78.1875H195.312V70.375ZM195.312 78.1875H203.125V86H195.312V78.1875ZM187.5 70.375H195.312V78.1875H187.5V70.375ZM320.312 31.3125H328.125V39.125H320.312V31.3125ZM320.312 39.125H328.125V46.9375H320.312V39.125ZM328.125 39.125H335.938V46.9375H328.125V39.125ZM328.125 31.3125H335.938V39.125H328.125V31.3125ZM312.5 23.5H320.312V31.3125H312.5V23.5ZM304.688 15.6875H312.5V23.5H304.688V15.6875ZM304.688 7.875H312.5V15.6875H304.688V7.875ZM296.875 15.6875H304.688V23.5H296.875V15.6875ZM335.938 31.3125H343.75V39.125H335.938V31.3125ZM335.938 39.125H343.75V46.9375H335.938V39.125ZM335.938 46.9375H343.75V54.75H335.938V46.9375ZM328.125 46.9375H335.938V54.75H328.125V46.9375ZM320.312 46.9375H328.125V54.75H320.312V46.9375ZM343.75 23.5H351.562V31.3125H343.75V23.5ZM351.562 15.6875H359.375V23.5H351.562V15.6875ZM351.562 7.875H359.375V15.6875H351.562V7.875ZM359.375 15.6875H367.188V23.5H359.375V15.6875ZM343.75 54.75H351.562V62.5625H343.75V54.75ZM351.562 62.5625H359.375V70.375H351.562V62.5625ZM359.375 62.5625H367.188V70.375H359.375V62.5625ZM351.562 70.375H359.375V78.1875H351.562V70.375ZM312.5 54.75H320.312V62.5625H312.5V54.75ZM304.688 62.5625H312.5V70.375H304.688V62.5625ZM296.875 62.5625H304.688V70.375H296.875V62.5625ZM304.688 70.375H312.5V78.1875H304.688V70.375ZM359.375 7.875H367.188V15.6875H359.375V7.875ZM367.188 7.875H375V15.6875H367.188V7.875ZM359.375 0.0625H367.188V7.875H359.375V0.0625ZM296.875 7.875H304.688V15.6875H296.875V7.875ZM296.875 0.0625H304.688V7.875H296.875V0.0625ZM289.062 7.875H296.875V15.6875H289.062V7.875ZM359.375 70.375H367.188V78.1875H359.375V70.375ZM367.188 70.375H375V78.1875H367.188V70.375ZM359.375 78.1875H367.188V86H359.375V78.1875ZM296.875 70.375H304.688V78.1875H296.875V70.375ZM296.875 78.1875H304.688V86H296.875V78.1875ZM289.062 70.375H296.875V78.1875H289.062V70.375Z" fill="url(#paint0_linear_65_81)"/>
<defs>
<linearGradient id="paint0_linear_65_81" x1="-8" y1="39.5" x2="383" y2="39.5" gradientUnits="userSpaceOnUse">
<stop stop-color="white"/>
<stop offset="1" stop-color="#646464"/>
</linearGradient>
</defs>
</svg>
