<svg width="118" height="50" viewBox="0 0 118 50" fill="none" xmlns="http://www.w3.org/2000/svg">
<path d="M4.33814 42.3626H0.558143V34.3226H4.99814V41.7626H8.65814V45.4226H19.1581V41.7626H22.8781V31.2626H19.1581V27.5426H8.05814V23.1626H19.1581V19.5026H22.8781V9.00255H19.1581V5.28255H8.65814V9.00255H4.99814V16.4426H0.558143V8.34255H4.33814V4.62256H8.05814V0.962553H19.8181V4.62256H23.4781V8.34255H27.1981V20.1026H23.4781V23.8226H19.8181V26.8826H23.4781V30.6026H27.1981V42.3626H23.4781V46.0826H19.8181V49.8626H8.05814V46.0826H4.33814V42.3626ZM34.3381 42.3626H30.5581V38.0426H34.9981V41.7626H38.6581V45.4226H49.1581V41.7626H52.8781V27.5426H49.1581V23.8226H38.6581V27.5426H34.9981V31.2626H30.5581V0.962553H53.4781V5.28255H34.9981V23.1626H38.0581V19.5026H49.8181V23.1626H53.4781V26.8826H57.1981V42.3626H53.4781V46.0826H49.8181V49.8626H38.0581V46.0826H34.3381V42.3626ZM60.5581 0.962553H64.9981V8.34255H68.6581V19.5026H72.3781V34.3226H75.4381V19.5026H79.1581V8.34255H82.8781V0.962553H87.1981V49.8626H82.8781V20.1026H79.8181V34.9826H76.0981V46.0826H71.7181V34.9826H68.0581V20.1026H64.9981V49.8626H60.5581V0.962553ZM90.5581 0.962553H94.9981V8.34255H98.6581V19.5026H102.378V34.3226H105.438V19.5026H109.158V8.34255H112.878V0.962553H117.198V49.8626H112.878V20.1026H109.818V34.9826H106.098V46.0826H101.718V34.9826H98.0581V20.1026H94.9981V49.8626H90.5581V0.962553Z" fill="black"/>
</svg>
