<svg width="541" height="85" viewBox="0 0 541 85" fill="none" xmlns="http://www.w3.org/2000/svg">
<path d="M76.3086 42.3457C76.3086 68.8496 59.7998 84.123 38.3496 84.123C16.6748 84.123 0.27832 68.7373 0.27832 42.3457C0.27832 15.8418 16.6748 0.568359 38.3496 0.568359C59.7998 0.568359 76.3086 15.8418 76.3086 42.3457ZM59.126 42.3457C59.126 24.9385 50.9277 15.5049 38.3496 15.5049C25.7715 15.5049 17.4609 24.9385 17.4609 42.3457C17.4609 59.7529 25.7715 69.1865 38.3496 69.1865C50.9277 69.1865 59.126 59.7529 59.126 42.3457ZM156.27 1.69141V83H141.67L105.957 31.3398H105.283V83H88.4375V1.69141H103.262L138.75 53.3516H139.536V1.69141H156.27ZM244.429 42.3457C244.429 68.8496 227.92 84.123 206.47 84.123C184.795 84.123 168.398 68.7373 168.398 42.3457C168.398 15.8418 184.795 0.568359 206.47 0.568359C227.92 0.568359 244.429 15.8418 244.429 42.3457ZM227.246 42.3457C227.246 24.9385 219.048 15.5049 206.47 15.5049C193.892 15.5049 185.581 24.9385 185.581 42.3457C185.581 59.7529 193.892 69.1865 206.47 69.1865C219.048 69.1865 227.246 59.7529 227.246 42.3457ZM256.558 83V1.69141H310.127V15.6172H273.403V35.3828H306.646V49.3086H273.403V83H256.558ZM321.245 83V1.69141H374.814V15.6172H338.091V35.3828H371.333V49.3086H338.091V83H321.245ZM460.391 42.3457C460.391 68.8496 443.882 84.123 422.432 84.123C400.757 84.123 384.36 68.7373 384.36 42.3457C384.36 15.8418 400.757 0.568359 422.432 0.568359C443.882 0.568359 460.391 15.8418 460.391 42.3457ZM443.208 42.3457C443.208 24.9385 435.01 15.5049 422.432 15.5049C409.854 15.5049 401.543 24.9385 401.543 42.3457C401.543 59.7529 409.854 69.1865 422.432 69.1865C435.01 69.1865 443.208 59.7529 443.208 42.3457ZM540.352 1.69141V83H525.752L490.039 31.3398H489.365V83H472.52V1.69141H487.344L522.832 53.3516H523.618V1.69141H540.352Z" fill="#02B28C"/>
</svg>
